<?xml version="1.0" encoding="utf-8"?>
<!-- Generator: Adobe Illustrator 16.0.0, SVG Export Plug-In . SVG Version: 6.00 Build 0)  -->
<!DOCTYPE svg PUBLIC "-//W3C//DTD SVG 1.1//EN" "http://www.w3.org/Graphics/SVG/1.1/DTD/svg11.dtd">
<svg version="1.1" id="Layer_1" xmlns="http://www.w3.org/2000/svg" xmlns:xlink="http://www.w3.org/1999/xlink" x="0px" y="0px"
	 width="1000px" height="1000px" viewBox="0 0 1000 1000" enable-background="new 0 0 1000 1000" xml:space="preserve">
<g>
	<path fill="#12BA00" d="M999.808,483.525C990.493,208.341,760.323-7.272,485.306,1.068c-0.6,0.02-1.2,0.02-1.813,0.042
		C207.681,10.454-8.342,241.587,0.983,517.361c9.336,275.786,240.486,491.772,516.302,482.427c0.61-0.02,1.21-0.063,1.821-0.084
		C794.047,989.408,1009.111,758.69,999.808,483.525"/>
	<path fill="#48F1FF" d="M959.899,304.396l-26.033,1.318l-13.543-13.88l-3.281-22.944l-13.11,7.756l-6.242,28.393l-19.983-19.895
		l-1.439-19.37l-19.19-15.417l-7.115-6.602l-21.631,0.729l7.498,19.033l26.513,13.619l4.673,4.643l-5.524,3.005l0.729,15.242
		l-12.476,5.732l-10.919-2.015l-7.063-9.36l17.611,0.349l4.531-6.56l-39.881-24.983l-3.346-11.102l-15.362,14.863l-16.183-2.758
		l-23.375,32.608l-4.368,12.596l-15.583,1.95l-23.123,0.928l-14.047-5.994l-5.001-27.324l4.523-13.26l23.351-5.949l25.857,4.283
		l2.638-14.317l-10.984-2.199l2.985-22.238l25.686-4.914l17.192-26.125l18.56-3.769l16.923,1.928l6.189-0.207l-4.205-23.849
		l-20.206,8.966l-7.79-17.671l-11.931-1.254l-2.638-12.191l9.349-10.883l22.73-9.817l5.581-10.786
		C727.046,40.354,610.451-2.899,484.613,1.089c-0.38,0.011-0.751,0.011-1.122,0.021C373.904,4.826,273.727,43.82,193.31,106.671
		l25.183-1.057l11.421,5.842l21.291,3.833l1.94,8.26l33.672,0.098l-4.927-10.623l-29.902,0.173l6.813-6.863l-2.725-7.824
		l-27.014,0.916l28.724-22.988l28.235-0.961l13.882,17.825l22.074,0.501l12.817-13.335l10.156,4.652l-17.666,18.468
		c0,0-25.311,1.286-24.058,1.241c1.253-0.042,2.692,17.345,2.692,17.345l30.629-1.885l3.074-8.399l21.094-1.962l2.083-12.516
		l-12.52-1.678l3.78-11.341l9.435-3.203l33.269,0.511l-17.761,17.225l3.4,12.748l19.188,2.266l-2.036-23.184l17.936-10.176
		l32.266-4.816l37.91,15.275l9.653,3.889l0.61,17.837l15.092,3.225l-7.006,14.357l-17,0.591l-4.162,0.129l-5.71,16.386
		l-48.773-9.772l37.331-21.54l-14.915-11.821l-32.659,5.262l-2.768,3.05l-0.11-0.043l-0.499,0.73l-9.111,10.122l-15.539,1.852
		l1.515,7.736l5.504,2.058l-0.122,2.571l-12.618,2.246l-0.687,7.396l-12.126,1.046l-2.68-14.556l-21.577,7.366l-43.619,27.563
		l5.621,18.173l12.728,7.682l25.009,2.592l0.959,28.293l11.43-2.243l9.85-22.463l26.176-9.286l-1.146-33.927l14.341-11.612
		l35.883,7.189l-1.742,22.511l9.567-0.327l25.706-13.739l2.243,29.405l8.903,5.013l10.537,5.947l-0.219,17.498l-9.403,3.552
		l0.402,12.147l14.735,6.114l-0.024,12.039l-6.364,0.751c-0.02-0.195-0.055-0.327-0.055-0.327l-7.725-2.091l-20.321-5.514
		l-1.462-8.857h-0.043l7.91-5.852l-0.272-8.105l-8.793-1.896l-1.907,7.561l-15.212,2.876l-1.537-0.446l0.023,0.763l-5.274,0.98
		l-4.62-8.574l-5.078-2.016l-10.896,0.371l-4.826,4.216l0.306,9.02l9.437,2.791l9.239,0.98l-2.018,0.97l-8.085,9.597l-3.868-4.531
		l-8.171-1.875l-21.414,21.574l2.966,2.265l-32.05,19.176l-29.639,32.991l-1.589,14.293l-30.13,21.278l-14.72,15.863l2.711,30.647
		l-21.52-9.15l-0.436-17.958l-58.908,2.017l-29.967,16.474l-12.444,24.864l-4.588,19.545l9.23,18.489l24.126,2.113l37.32-26.847
		l3.781,12.551l-10.917,22.413l29.258,3.978l4.401,44.8l40.1,5.402l24.302-30.11l30.935,5.205l11.3,14.644l29.4-2.734l0.522-8.748
		l16.455,7.342l19.241,28l31.525-0.631l12.333,19.938l2.497,24.829l22.721,7.779l12.606,4.323l43.991-1.068l13.61,20.689
		l19.702,5.592l-3.162,17.563l-20.465,27.89l-4.192,60.294l-18.755,15.904l-28.679,0.11l-8.958,16.854v0.151l8.117,30.801
		l-6.757,9.282l-23.046,31.617l-9.329,18.599l-29.201,15.276l-19.429,3.616l-0.522,8.313l13.827,3.465l-1.354,8.976l-11.875,12.224
		l7.78,9.132l14.775-0.086l-0.446,11.429l-3.541,11.342l-0.961,9.149l22.461,17.652l-2.581,9.65l-29.729,0.446l-30.444-24.808
		l-24.434-39.702l1.907-39.195l-18.22-22.664l5.733-39.637l-10.472-2.562l-2.897-85.47c0,0-29.794-21.027-31.448-20.984
		c-1.657,0.066-15.475-3.203-15.475-3.203l-3.475-16.069l-39.35-46.031l3.16-17.138l0.283-27.846l25.509-19.143l-4.783-31.008
		l-38.269-1.568l-31.024-33.045l-21.368-5.065l-13.751-2.05l1.21-12.506l-17.511-1.885l0.238,7.048L129.5,471.71l-18.449-26.235
		l6.713-13.248L88.79,392.895l-5.743-29.297l-11.2,0.382l4.695,28.49l20.081,28.818l-1.676,11.702l-16.27-1.941l-21.053-33.271
		l-1.34-39.496l-21.072-9.271l-0.974-28.414C10.625,381.52-1.371,448.048,0.983,517.36
		c9.317,275.338,240.949,491.756,516.333,482.43c0.37-0.012,0.752-0.043,1.122-0.043c155.659-5.624,292.338-82.304,379.96-197.638
		l-16.478,0.544l-1.119-33.186l-19.922-25.022l-1.35-39.921l-15.049-14.001l-1.82-16.57l17.283-35.898l-37.146-60.641l2.734-42.077
		l-31.666-2.222l-11.984-11.224l-21.195,0.72l-10.43,10.306l-37.366,1.276l-1.131,3.354l-20.76,0.709l-49.549-52.731l-1.056-42.338
		l7.79-3.172l2.378-16.288l-11.192,0.371l-5.165-16.845l53.873-41.693l-0.958-28.219l26.502-15.917l10.962,0.719l22.239-0.741
		l17.076-9.937l55.889-6.264l0.979,28.643l44.591,9.707l8.924,5.938l8.098-0.283l-0.532-15.58l25.431-3.344l24.911,17.246
		l39.814-1.351l2.715-2.658C970.318,330.216,965.358,317.175,959.899,304.396 M719.244,170.267l4.346-7.191l16.283-3.878
		l4.805,19.784l9.219,13.817l6.014,6.448l10.724,3.771l-9.545,12.181l-19.235,2.505l-14.523,0.5l1.044-17.278l11.987-2.898
		l-1.295-8.061l-11.477-6.681l-8.073-5.109L719.244,170.267z M693.331,202.319l9.448-16.308l13.335-3.575l9.733,3.824l-0.513,10.808
		l-20.024,15.231l-11.631,0.391L693.331,202.319z M433.464,260.435l14.297-0.481l2.714-7.725l5.678-0.314l6.549,1.133l-2.572,5.86
		l-7.095,0.873l-1.207,6.907l-5.353,3.597l-8.739,1.023c-0.359-2.048-0.619-3.607-0.619-3.607l-3.404,0.109L433.464,260.435z
		 M413.72,274.141l0.305-7.236l4.479-5.97l6.398,4.695l-0.819,7.289L413.72,274.141z"/>
</g>
</svg>
